<svg xmlns="http://www.w3.org/2000/svg" viewBox="0 0 64 64" width="64" height="64">
  <defs>
    <linearGradient id="bg" x1="0%" y1="0%" x2="100%" y2="100%">
      <stop offset="0%" style="stop-color:#667eea;stop-opacity:1" />
      <stop offset="100%" style="stop-color:#764ba2;stop-opacity:1" />
    </linearGradient>
    <linearGradient id="screen" x1="0%" y1="0%" x2="100%" y2="100%">
      <stop offset="0%" style="stop-color:#1a1a2e;stop-opacity:1" />
      <stop offset="100%" style="stop-color:#16213e;stop-opacity:1" />
    </linearGradient>
  </defs>
  
  <!-- 背景圆形 -->
  <circle cx="32" cy="32" r="30" fill="url(#bg)" stroke="#ffffff" stroke-width="2"/>
  
  <!-- 播放器屏幕 -->
  <rect x="12" y="18" width="40" height="24" rx="3" ry="3" fill="url(#screen)" stroke="#4a5568" stroke-width="1"/>
  
  <!-- 播放按钮 -->
  <polygon points="26,26 26,36 36,31" fill="#ffffff" opacity="0.9"/>
  
  <!-- 进度条 -->
  <rect x="14" y="44" width="36" height="2" rx="1" ry="1" fill="#4a5568"/>
  <rect x="14" y="44" width="18" height="2" rx="1" ry="1" fill="#667eea"/>
  
  <!-- 装饰性光点 -->
  <circle cx="48" cy="20" r="2" fill="#ffffff" opacity="0.6"/>
  <circle cx="20" cy="48" r="1.5" fill="#ffffff" opacity="0.4"/>
  
  <!-- 胶片边框装饰 -->
  <rect x="8" y="16" width="2" height="4" fill="#ffffff" opacity="0.3"/>
  <rect x="8" y="22" width="2" height="4" fill="#ffffff" opacity="0.3"/>
  <rect x="8" y="28" width="2" height="4" fill="#ffffff" opacity="0.3"/>
  <rect x="8" y="34" width="2" height="4" fill="#ffffff" opacity="0.3"/>
  <rect x="8" y="40" width="2" height="4" fill="#ffffff" opacity="0.3"/>
  
  <rect x="54" y="16" width="2" height="4" fill="#ffffff" opacity="0.3"/>
  <rect x="54" y="22" width="2" height="4" fill="#ffffff" opacity="0.3"/>
  <rect x="54" y="28" width="2" height="4" fill="#ffffff" opacity="0.3"/>
  <rect x="54" y="34" width="2" height="4" fill="#ffffff" opacity="0.3"/>
  <rect x="54" y="40" width="2" height="4" fill="#ffffff" opacity="0.3"/>
</svg>